<svg id="Calque_2" data-name="Calque 2" xmlns="http://www.w3.org/2000/svg" viewBox="0 0 186.39 216.18">
    <defs>
        <style>
        .cls-1 {
        fill: #FFFFFF;
        }
        
        .cls-2 {
        fill: #FFFFFF;
        }
        </style>
    </defs>
    <g id="Calque_1-2" data-name="Calque 1">
        <g>
            <path class="cls-2" d="m143.52,39.6C98.06,11.5,38.35,27.81,13.37,74.98c-36.74,69.81,26.78,150.04,103.15,131.2,39.7-9.65,69.72-47.53,69.87-88.5.25,81.07-95.4,123.9-155.7,69.32C-.81,159.12-9.34,110.58,11.09,73.75,36.15,26.3,98.8,9.61,143.52,39.6h0Z"/>
            <path class="cls-2" d="m65.76,145.99s2.68-11.42-1.75-43.06C59.59,71.28,31.35,11.39,26.26.24l.43-.24h0c13.21,22.65,15.54,30.72,31.05,66.63,4.88,11.3,6.91,22.99,9.3,35.04,2.07,11.68,3.12,25.45,2.79,37.46-.01.5,19.9-17.37,19.9-17.37,0,0,12.56,15.1,23.76,31.64,9.27,13.7,28.48,44.56,28.22,44.72-.36.23-4.77-6.06-13.58-18.89-4.38-6.37-8.65-12.95-12.95-19.25-7.14-10.16-18.04-24.32-26.04-34.96l-23.38,20.98Z"/>
            <g>
                <path class="cls-1" d="m27.12,1.25c-.41-.73-.64-1.12-.64-1.12l.64,1.12Z"/>
                <path class="cls-1" d="m153.01,189.73s-1.7,1.41-3.34,2.63-3.44,2.48-3.44,2.48c-6.27-9.48-12.26-21.17-16.31-35.4-10.81-38.03-10.55-63.67-10.55-63.67-.35-1.17-1.82-1.54-2.69-.68l-22.82,22.59L27.12,1.25c3.79,6.67,23.48,42.38,33.05,79.54,10.61,41.22,8.18,58.79,8.18,58.79.35,1.17,1.82,1.54,2.69.68l18.69-18.5s20.72,26.19,29.79,40.69c9.07,14.5,22.08,35.25,22.08,35.25-.04.02-1.89,1.23-3.72,2.23-1.94,1.06-3.95,2.02-3.95,2.02,0,0,8.11,2.16,13.56,5.5s11.67,8.72,11.67,8.72c0,0-3.09-6.04-4.97-13.07s-1.18-13.38-1.18-13.38Z"/>
            </g>
        </g>
    </g>
</svg>