<svg id="Calque_2" data-name="Calque 2" xmlns="http://www.w3.org/2000/svg" viewBox="0 0 75.81 75.78">
  <defs>
    <style>
      .cls-1 {
        fill: #ffffff00;
      }

      .cls-1, .cls-2 {
        stroke: #ee6352;
        stroke-miterlimit: 10;
      }

      .cls-2 {
        fill: #ee6352;
      }
    </style>
  </defs>
  <g id="Page_sauvegardes" data-name="Page sauvegardes">
    <g>
      <path class="cls-1" d="m75.31,37.89c0,11.63-5.31,22.02-13.64,28.88-6.46,5.31-14.74,8.51-23.76,8.51s-17.3-3.2-23.76-8.51C5.81,59.91.5,49.52.5,37.89.5,17.24,17.25.5,37.91.5s37.4,16.74,37.4,37.39Z"/>
      <path class="cls-2" d="m61.76,63.88c0,.97-.03,1.94-.09,2.89-6.46,5.31-14.74,8.51-23.76,8.51s-17.3-3.2-23.76-8.51c-.06-.95-.09-1.92-.09-2.89,0-14.87,7.03-27.44,16.72-31.66-3.9-2.49-6.5-6.85-6.5-11.82,0-7.74,6.28-14.02,14.03-14.02s14.02,6.28,14.02,14.02c0,5.12-2.75,9.58-6.84,12.03,9.45,4.41,16.27,16.82,16.27,31.45Z"/>
    </g>
  </g>
</svg>