<svg id="Calque_2" data-name="Calque 2" xmlns="http://www.w3.org/2000/svg" viewBox="0 0 257.52 274.53">
  <defs>
    <style>
      .cls-1 {
        fill: #fff;
      }

      .cls-2 {
        fill: #ff6357;
      }
    </style>
  </defs>
  <g id="Calque_1-2" data-name="Calque 1">
    <g>
      <g>
        <path class="cls-2" d="m170.97,32.11c-36.86-22.78-85.29-9.56-105.55,28.69-29.79,56.61,21.72,121.67,83.65,106.39,32.19-7.83,56.53-38.54,56.66-71.77.21,65.74-77.36,100.47-126.26,56.22-25.55-22.61-32.46-61.97-15.9-91.84,20.32-38.48,71.13-52.02,107.4-27.7h0Z"/>
        <path class="cls-2" d="m107.91,118.39s2.17-9.26-1.42-34.92C102.9,57.81,80,9.24,75.88.2l.35-.2h0c10.72,18.37,12.6,24.91,25.18,54.03,3.96,9.17,5.61,18.64,7.54,28.42,1.68,9.47,2.53,20.64,2.26,30.38-.01.41,16.14-14.08,16.14-14.08,0,0,10.19,12.24,19.27,25.65,7.52,11.11,23.09,36.13,22.88,36.27-.29.18-3.87-4.91-11.02-15.32-3.55-5.17-7.01-10.5-10.5-15.61-5.79-8.24-14.63-19.72-21.11-28.35l-18.96,17.01Z"/>
        <g>
          <path class="cls-1" d="m76.57,1.01c-.34-.59-.52-.91-.52-.91l.52.91Z"/>
          <path class="cls-1" d="m178.66,153.86s-1.38,1.15-2.71,2.13-2.79,2.01-2.79,2.01c-5.08-7.69-9.94-17.17-13.22-28.71-8.76-30.84-8.55-51.63-8.55-51.63-.28-.95-1.48-1.25-2.18-.55l-18.51,18.32L76.57,1.01c3.07,5.41,19.04,34.37,26.8,64.5,8.6,33.43,6.63,47.68,6.63,47.68.28.95,1.48,1.25,2.18.55l15.16-15s16.81,21.24,24.16,33c7.35,11.76,17.91,28.59,17.91,28.59-.03.02-1.54.99-3.01,1.81-1.57.86-3.2,1.64-3.2,1.64,0,0,6.57,1.75,10.99,4.46s9.46,7.07,9.46,7.07c0,0-2.51-4.9-4.03-10.6-1.52-5.7-.96-10.85-.96-10.85Z"/>
        </g>
      </g>
      <g>
        <g>
          <path class="cls-1" d="m39.25,274.16c-10.8,0-21.27-4.59-28.71-12.59C3.02,253.47-.69,242.98.11,232.04c1.4-19.28,17-34.88,36.28-36.28,10.95-.79,21.43,2.91,29.53,10.44,8,7.44,12.59,17.91,12.59,28.71v2.08h-41.34v-4.15h37.13c-.54-8.91-4.56-17.41-11.2-23.59-7.24-6.73-16.62-10.05-26.4-9.34-17.24,1.25-31.18,15.2-32.44,32.44-.71,9.78,2.6,19.16,9.34,26.4,6.66,7.16,16.01,11.27,25.67,11.27,12.06,0,23.49-6.37,29.84-16.61l3.53,2.19c-7.1,11.46-19.89,18.58-33.37,18.58Z"/>
          <path class="cls-1" d="m164.07,236.17h-70.47v37.66h-3.62v-78.04h3.62v37.21h70.47v-37.21h3.62v78.04h-3.62v-37.66Z"/>
        </g>
        <path class="cls-1" d="m217.8,274.53c-21.9,0-39.72-17.82-39.72-39.72s17.82-39.72,39.72-39.72,39.72,17.82,39.72,39.72-17.82,39.72-39.72,39.72Zm0-75.28c-19.61,0-35.57,15.95-35.57,35.56s15.95,35.56,35.57,35.56,35.56-15.95,35.56-35.56-15.95-35.56-35.56-35.56Z"/>
      </g>
    </g>
  </g>
</svg>