<svg id="Calque_2" data-name="Calque 2" xmlns="http://www.w3.org/2000/svg" viewBox="0 0 542.03 216.18">
  <defs>
    <style>
      .cls-1 {
        fill: #fff;
      }

      .cls-2 {
        fill: #ff6357;
      }
    </style>
  </defs>
  <g id="Calque_1-2" data-name="Calque 1">
    <g>
      <g>
        <path class="cls-2" d="m499.16,39.6c-45.46-28.1-105.18-11.79-130.15,35.38-36.74,69.81,26.78,150.04,103.15,131.2,39.7-9.65,69.72-47.53,69.87-88.5.25,81.07-95.4,123.9-155.7,69.32-31.51-27.88-40.03-76.42-19.61-113.25,25.06-47.46,87.71-64.14,132.44-34.15h0Z"/>
        <path class="cls-2" d="m421.39,145.99s2.68-11.42-1.75-43.06c-4.43-31.65-32.67-91.54-37.75-102.68l.43-.24h0c13.21,22.65,15.54,30.72,31.05,66.63,4.88,11.3,6.91,22.99,9.3,35.04,2.07,11.68,3.12,25.45,2.79,37.46-.01.5,19.9-17.37,19.9-17.37,0,0,12.56,15.1,23.76,31.64,9.27,13.7,28.48,44.56,28.22,44.72-.36.23-4.77-6.06-13.58-18.89-4.38-6.37-8.65-12.95-12.95-19.25-7.14-10.16-18.04-24.32-26.04-34.96l-23.38,20.98Z"/>
        <g>
          <path class="cls-1" d="m382.76,1.25c-.41-.73-.64-1.12-.64-1.12l.64,1.12Z"/>
          <path class="cls-1" d="m508.64,189.73s-1.7,1.41-3.34,2.63-3.44,2.48-3.44,2.48c-6.27-9.48-12.26-21.17-16.31-35.4-10.81-38.03-10.55-63.67-10.55-63.67-.35-1.17-1.82-1.54-2.69-.68l-22.82,22.59L382.76,1.25c3.79,6.67,23.48,42.38,33.05,79.54,10.61,41.22,8.18,58.79,8.18,58.79.35,1.17,1.82,1.54,2.69.68l18.69-18.5s20.72,26.19,29.79,40.69c9.07,14.5,22.08,35.25,22.08,35.25-.04.02-1.89,1.23-3.72,2.23-1.94,1.06-3.95,2.02-3.95,2.02,0,0,8.11,2.16,13.56,5.5s11.67,8.72,11.67,8.72c0,0-3.09-6.04-4.97-13.07s-1.18-13.38-1.18-13.38Z"/>
        </g>
      </g>
      <g>
        <g>
          <path class="cls-1" d="m48.41,172.02c-13.32,0-26.23-5.66-35.4-15.53C3.72,146.51-.85,133.58.13,120.08c1.73-23.77,20.96-43.01,44.74-44.74,13.5-.97,26.43,3.59,36.41,12.87,9.87,9.18,15.53,22.08,15.53,35.4v2.56h-50.98v-5.12h45.78c-.67-10.99-5.62-21.47-13.82-29.09-8.93-8.3-20.49-12.39-32.55-11.51-21.26,1.55-38.45,18.74-40,40-.88,12.07,3.21,23.63,11.51,32.55,8.21,8.83,19.75,13.89,31.65,13.89,14.87,0,28.96-7.85,36.79-20.49l4.35,2.7c-8.76,14.13-24.52,22.91-41.15,22.91Z"/>
          <path class="cls-1" d="m202.32,125.18h-86.89v46.44h-4.46v-96.23h4.46v45.88h86.89v-45.88h4.46v96.23h-4.46v-46.44Z"/>
        </g>
        <path class="cls-1" d="m268.58,172.49c-27.01,0-48.98-21.97-48.98-48.98s21.97-48.98,48.98-48.98,48.98,21.97,48.98,48.98-21.97,48.98-48.98,48.98Zm0-92.83c-24.18,0-43.86,19.67-43.86,43.86s19.67,43.86,43.86,43.86,43.86-19.67,43.86-43.86-19.67-43.86-43.86-43.86Z"/>
      </g>
    </g>
  </g>
</svg>