<svg version="1.0" xmlns="http://www.w3.org/2000/svg" width="800.000000pt" height="800.000000pt" viewBox="0 0 800.000000 800.000000" preserveAspectRatio="xMidYMid meet">
    <g transform="translate(0.000000,800.000000) scale(0.100000,-0.100000)" fill="#FFFFFF" stroke="none">
    <path d="M2055 7993 c-239 -21 -533 -99 -749 -197 -397 -181 -767 -517 -995 -902 -113 -193 -190 -381 -246 -604 -64 -255 -60 -115 -60 -2290 0 -1865 1 -1981 18 -2085 34 -206 103 -438 181 -609 181 -397 517 -767 902 -995 193 -113 381 -190 604 -246 255 -64 115 -60 2290 -60 1865 0 1981 1 2085 18 498 83 909 291 1256 637 243 242 421 524 530 839 49 142 82 271 106 416 17 104 18 220 18 2085 0 1865 -1 1981 -18 2085 -83 498 -291 909 -637 1256 -334 336 -726 538 -1225 632 -109 20 -132 21 -2065 22 -1075 1 -1973 0 -1995 -2z m4176 -1462 c82 -28 110 -45 173 -102 101 -92 148 -201 150 -344 1 -135 -35 -231 -125 -329 -94 -103 -201 -149 -349 -149 -148 0 -255 46 -349 149 -90 98 -126 194 -125 329 2 143 49 252 150 344 72 66 151 105 254 125 47 9 165 -3 221 -23z m-1937 -637 c400 -60 760 -242 1057 -535 293 -289 479 -653 545 -1069 23 -142 23 -438 0 -580 -133 -831 -775 -1473 -1606 -1606 -142 -23 -438 -23 -580 0 -416 66 -780 252 -1069 545 -294 297 -471 648 -537 1061 -33 210 -19 542 32 745 109 433 364 819 714 1080 305 227 608 339 1025 379 73 7 317 -4 419 -20z"/>
    <path d="M3805 5265 c-286 -51 -523 -174 -716 -372 -331 -340 -446 -801 -314 -1258 57 -194 162 -372 314 -528 502 -514 1320 -514 1822 0 330 339 445 801 313 1260 -14 48 -45 129 -69 180 -182 376 -537 646 -938 713 -108 18 -324 21 -412 5z"/>
    </g>
</svg>