<svg id="Groupe_3" data-name="Groupe 3" xmlns="http://www.w3.org/2000/svg" xmlns:xlink="http://www.w3.org/1999/xlink" width="606.538" height="313.916" viewBox="0 0 606.538 313.916">
  <defs>
    <clipPath id="clip-path">
      <rect id="Rectangle_44" data-name="Rectangle 44" width="606.538" height="313.915" fill="none"/>
    </clipPath>
  </defs>
  <path id="Tracé_22" data-name="Tracé 22" d="M67.684,68.521v10.5H79.631V168.3h12.6V79.025h11.944v-10.5Z" transform="translate(143.84 145.62)" fill="#ebaf2a"/>
  <path id="Tracé_23" data-name="Tracé 23" d="M81.124,68.521V168.3H112.5V157.53H93.725v-34.4h16.148V112.368H93.725V79.284h18.51V68.521Z" transform="translate(172.403 145.62)" fill="#ebaf2a"/>
  <path id="Tracé_24" data-name="Tracé 24" d="M113.171,81.519l4.853,50.281h-9.716Zm-8.929-13L92.295,168.3h12.6l2.494-25.73h11.551l2.5,25.73h13.126L122.359,68.521Z" transform="translate(196.143 145.619)" fill="#ebaf2a"/>
  <path id="Tracé_25" data-name="Tracé 25" d="M144.471,68.521l-9.322,80.608-9.319-80.608H107.585V168.3H119V90.054l9.844,78.242h12.473l9.847-78.242V168.3h11.944V68.521Z" transform="translate(228.637 145.62)" fill="#ebaf2a"/>
  <g id="Groupe_2" data-name="Groupe 2" transform="translate(0 0)">
    <g id="Groupe_1" data-name="Groupe 1" clip-path="url(#clip-path)">
      <path id="Tracé_26" data-name="Tracé 26" d="M179.377,72.326a33.1,33.1,0,1,0-33.1,33.1,33.1,33.1,0,0,0,33.1-33.1" transform="translate(240.519 83.358)" fill="#fff"/>
      <path id="Tracé_27" data-name="Tracé 27" d="M77.447,132.707C77.447,94.52,44.9,80.169,44.9,50.958c0-27.936,27.93-42.8,49.2-42.8,21.014,0,33.314,9.741,33.314,27.933,0,11.276-7.179,21.529-17.682,21.529-6.919,0-12.56-4.36-12.56-11.279,0-8.713,8.716-11.532,8.716-18.195,0-3.844-1.541-6.919-7.944-6.919-8.972,0-16.917,7.688-16.917,18.964,0,29.983,34.855,44.334,34.855,81.752,0,34.083-27.936,59.71-64.835,59.71C23.884,181.653.564,167.3.564,142.185c0-23.576,25.373-34.849,43.312-34.849,8.713,0,11.273,1.791,11.273,4.1,0,2.822-1.791,3.847-4.353,5.382a32.942,32.942,0,0,0-14.351,26.908c0,12.816,8.2,21.017,19.729,21.017,12.3,0,21.273-13.585,21.273-32.033" transform="translate(1.199 17.339)" fill="#09535e"/>
      <path id="Tracé_28" data-name="Tracé 28" d="M122.812,89.053c2.05-1.791,3.844-3.072,5.385-3.072a2.953,2.953,0,0,1,3.072,3.072c0,2.566-1.281,4.616-5.125,8.716-8.457,8.969-21.014,21.526-45.871,21.526-24.089,0-41.005-10.763-41.005-35.365,0-24.858,19.992-47.153,54.075-47.153,17.426,0,25.37,7.688,25.37,18.707,0,14.607-17.17,28.7-42.8,30.752,0,8.969,6.919,15.888,19.22,15.888,13.069,0,22.039-8.457,27.677-13.073M100,53.691c0-3.844-2.05-5.9-6.15-5.9-7.688,0-17.939,12.56-17.939,27.68C90.523,72.652,100,59.842,100,53.691" transform="translate(83.449 78.16)" fill="#09535e"/>
      <path id="Tracé_29" data-name="Tracé 29" d="M97.644,111.515c0,4.357-1.794,5.382-5.641,5.382-7.688,0-17.682,1.281-21.523,1.281-3.335,0-5.382-1.281-5.382-5.638,0-9.482,10.76-44.078,10.76-57.916,0-4.36-1.791-4.872-1.791-8.2,0-5.641,13.838-9.482,28.7-9.482,5.635,0,8.713,2.3,8.713,6.663a45.651,45.651,0,0,1-1.538,9.994c1.538-3.078,8.713-15.632,22.548-15.632,7.179,0,11.791,4.353,11.791,12.041,0,9.485-6.15,20.248-16.657,20.248-7.175,0-10.766-5.128-10.766-9.738-1.534.513-4.866,3.841-8.713,11.019-4.61,8.71-10.5,29.983-10.5,39.977" transform="translate(138.345 78.508)" fill="#09535e"/>
      <path id="Tracé_30" data-name="Tracé 30" d="M90.025,96.9c0-16.4,8.457-33.058,8.457-42.281,0-4.36-1.534-4.872-1.534-8.2,0-5.641,13.582-9.482,28.442-9.482,5.638,0,8.713,2.3,8.713,6.66,0,10.254-8.2,26.4-8.2,43.312,0,6.663,3.847,10.5,8.46,10.5,4.357,0,6.4-2.047,9.738-5.382,1.794-1.794,2.819-2.563,4.353-2.563a3.653,3.653,0,0,1,3.591,3.591c0,2.819-1.538,4.866-4.1,8.2-5.378,6.916-16.4,16.913-32.546,16.913-16.913,0-25.37-9.485-25.37-21.273" transform="translate(191.319 78.508)" fill="#09535e"/>
      <path id="Tracé_31" data-name="Tracé 31" d="M194.285,66.594c0,28.7-18.195,53.306-49.715,53.306-22.551,0-37.162-13.073-37.162-33.571,0-24.858,19.736-49.715,54.844-49.715,18.96,0,32.033,12.3,32.033,29.98M170.2,71.979c-7.944-3.075-10.251-5.9-10.251-10.507,0-6.407,3.844-8.457,3.844-10,0-1.281-.769-2.05-2.306-2.05-1.025,0-3.591.769-7.175,3.591-6.407,5.122-12.56,14.6-12.56,29.211,0,11.535,6.663,18.967,16.66,18.967,10.251,0,16.914-10.51,16.914-19.479,0-4.353-1.541-8.2-5.125-9.735" transform="translate(228.261 77.811)" fill="#09535e"/>
      <path id="Tracé_32" data-name="Tracé 32" d="M195.377,102.546s-15.632,15.632-38.7,15.632c-12.81,0-20.245-9.226-20.245-19.732,0-15.888,8.713-34.6,8.713-43.821,0-4.36-1.794-4.872-1.794-8.2,0-5.641,13.838-9.482,28.7-9.482,5.638,0,8.713,2.3,8.713,6.663,0,11.788-9.482,28.955-9.482,47.665,0,3.844,2.563,6.4,6.15,6.4,5.638,0,12.044-4.353,15.379-10.5,5.635-9.994,8.966-23.067,8.966-32.546,0-4.36-1.791-4.872-1.791-8.2,0-5.641,13.835-9.482,28.7-9.482,5.641,0,8.713,2.3,8.713,6.663,0,9.994-8.969,29.724-8.969,43.309,0,6.663,3.591,10.5,8.2,10.5,4.36,0,6.407-2.047,9.738-5.378,1.8-1.8,2.822-2.566,4.36-2.566a3.654,3.654,0,0,1,3.585,3.591c0,2.819-1.538,4.866-4.1,8.2-5.385,6.919-16.145,16.913-32.289,16.913-20.248,0-22.554-15.632-22.554-15.632" transform="translate(289.951 78.508)" fill="#09535e"/>
      <path id="Tracé_33" data-name="Tracé 33" d="M193.683,93.679c0,6.407,2.306,10.763,6.919,10.763,3.588,0,5.638-2.306,5.638-6.922,0-15.116-25.37-17.423-25.37-36.643,0-16.145,16.145-24.345,35.365-24.345,18.707,0,27.164,7.175,27.164,17.682,0,6.919-3.588,13.07-12.044,13.07-4.869,0-9.222-3.844-9.222-8.713,0-3.844,2.047-5.382,2.047-7.688,0-2.566-2.047-3.588-4.869-3.588-3.331,0-7.432,3.588-7.432,8.457,0,15.12,28.189,17.167,28.189,35.877,0,16.657-13.326,27.933-35.877,27.933-19.22,0-33.314-8.457-33.314-22.3,0-8.2,5.894-13.066,11.788-13.066,6.919,0,11.019,3.331,11.019,9.482" transform="translate(363.14 77.637)" fill="#09535e"/>
      <path id="Tracé_34" data-name="Tracé 34" d="M39.1,28.151c1.356-.859,2.306-1.475,3.122-1.475a1.62,1.62,0,0,1,1.766,1.475c0,1.231-.813,2.213-2.988,4.181a27.1,27.1,0,0,1-18.87,7.25C9.366,39.583,0,34.42,0,22.619,0,10.693,10.588,0,28.645,0c9.232,0,13.441,3.688,13.441,8.972,0,7.01-9.1,13.773-22.673,14.754,0,4.3,4.344,7.622,9.5,7.622a18.814,18.814,0,0,0,10.182-3.2M32.177,8.112c0-1.844-1.088-2.825-3.26-2.825-4.075,0-9.5,6.022-9.5,13.276,7.741-1.353,12.763-7.5,12.763-10.451" transform="translate(0 -0.002)" fill="#ebaf2a"/>
      <path id="Tracé_35" data-name="Tracé 35" d="M140.684,35.766a15.439,15.439,0,0,0-6.713-13.7l0,0c-.047-.028-.091-.059-.134-.091v0c-8.35-5.735-20.595-1.753-22.989,8.444-.869,4.563,1.775,10.616-.394,13.82-2.422,2.994-3.806,5.113-4.163,7.522-.719,4.878,3.9,9.11,8.619,7.66a13.069,13.069,0,0,0,1.344-.506A6.668,6.668,0,0,0,119.12,56.4c.613-.953,1.359-2.122,2.1-3.25a6.214,6.214,0,0,1,1.8-1.863c6.678-4.269,17.2-3.641,17.657-15.517" transform="translate(225.737 41.097)" fill="#ebaf2a"/>
      <path id="Tracé_36" data-name="Tracé 36" d="M131.2,19.741A21.553,21.553,0,0,0,112.517,9.509v0c-.075,0-.147,0-.222,0v0c-14.141.172-24.9,14.563-19.429,28.123,2.675,5.9,10.56,10.682,10.66,16.079-.35,5.366-.228,8.894,1.306,11.929,3.1,6.144,11.776,7.254,15.988,1.806a16.984,16.984,0,0,0,1.131-1.659,9.284,9.284,0,0,0,1.238-5.175c-.069-1.581-.156-3.513-.216-5.4a8.7,8.7,0,0,1,.559-3.575c4.185-10.238,16.695-17.989,7.663-31.9" transform="translate(194.269 20.202)" fill="#fff"/>
      <path id="Tracé_37" data-name="Tracé 37" d="M112.707,12.634a18.52,18.52,0,0,1,15.87,8.81c5.366,8.269,1.763,13.545-2.8,20.226a48.143,48.143,0,0,0-5.135,8.791,11.824,11.824,0,0,0-.791,4.857c.05,1.6.122,3.225.184,4.647l.034.784a6.141,6.141,0,0,1-.8,3.435,13.91,13.91,0,0,1-.922,1.356,5.935,5.935,0,0,1-4.782,2.3,6.606,6.606,0,0,1-5.947-3.6c-1.222-2.419-1.284-5.613-.975-10.313l.009-.131,0-.131c-.078-4.26-3.191-7.7-6.2-11.029-1.869-2.069-3.8-4.206-4.691-6.163a16.626,16.626,0,0,1,1.7-15.648,18.17,18.17,0,0,1,14.87-8.179l.35-.006Zm-.187-3.128c-.066,0-.128,0-.194,0h-.031v.006c-14.138.172-24.9,14.56-19.429,28.12,2.675,5.9,10.563,10.685,10.663,16.079-.353,5.366-.228,8.9,1.306,11.929a9.76,9.76,0,0,0,8.735,5.319,9.05,9.05,0,0,0,7.254-3.51,17.163,17.163,0,0,0,1.128-1.659,9.271,9.271,0,0,0,1.241-5.178c-.069-1.578-.156-3.51-.219-5.4a8.675,8.675,0,0,1,.563-3.572c4.185-10.241,16.692-17.989,7.663-31.9A21.55,21.55,0,0,0,112.707,9.509h-.187Z" transform="translate(194.27 20.202)" fill="#09535e"/>
      <path id="Tracé_38" data-name="Tracé 38" d="M96.687,51.284a6.214,6.214,0,0,1,1.8,1.863c.744,1.128,1.488,2.3,2.1,3.25a6.676,6.676,0,0,0,2.866,2.519,12.351,12.351,0,0,0,1.344.5c4.716,1.453,9.335-2.778,8.616-7.657-.353-2.41-1.738-4.528-4.16-7.522-2.169-3.2.475-9.257-.4-13.82-2.391-10.2-14.635-14.182-22.986-8.444v0c-.044.031-.088.063-.134.091l0,0a15.435,15.435,0,0,0-6.713,13.7c.456,11.876,10.979,11.248,17.657,15.517" transform="translate(167.853 41.096)" fill="#ebaf2a"/>
    </g>
  </g>
</svg>