<?xml version="1.0" encoding="UTF-8"?>
<svg id="Calque_1" data-name="Calque 1" xmlns="http://www.w3.org/2000/svg" viewBox="0 0 1920 1080">
  <defs>
    <style>
      .cls-1 {
        stroke: #fff;
      }

      .cls-1, .cls-2 {
        fill: none;
        stroke-miterlimit: 10;
      }

      .cls-2 {
        stroke: #e9ae29;
      }
    </style>
  </defs>
  <g>
    <g>
      <polyline class="cls-2" points="64.5 1252.4 229.81 1087.1 229.9 1087.01 395.2 921.71 395.28 921.62 560.59 756.31 560.67 756.24 725.99 590.92 726.06 590.85 891.38 425.53 891.45 425.46 1672.52 -355.61 1672.59 -355.69"/>
      <polyline class="cls-2" points="1507.51 -520.78 1507.43 -520.7 726.36 260.37 726.29 260.45 560.97 425.76 560.9 425.83 395.59 591.15 395.5 591.22 230.2 756.54 230.12 756.62 64.81 921.93 64.73 922.01 -100.59 1087.31"/>
      <polyline class="cls-2" points="1342.43 -685.87 1342.35 -685.78 561.28 95.29 561.2 95.36 395.89 260.67 395.82 260.75 230.5 426.06 230.43 426.14 65.11 591.45 65.03 591.53 -100.28 756.84 -100.36 756.92 -265.68 922.24"/>
      <polyline class="cls-2" points="1177.34 -850.94 1177.27 -850.86 396.2 -69.79 396.13 -69.72 230.81 95.6 230.74 95.67 65.42 260.99 65.34 261.06 -99.97 426.37 -100.05 426.46 -265.35 591.76 -265.44 591.85 -430.75 757.15"/>
      <polyline class="cls-2" points="-595.84 592.07 -430.52 426.76 -430.44 426.68 -265.13 261.37 -265.05 261.29 -99.75 95.97 -99.66 95.9 65.65 -69.42 65.73 -69.49 231.04 -234.8 231.11 -234.88 1012.18 -1015.95 1012.26 -1016.03"/>
    </g>
    <g>
      <polyline class="cls-1" points="84.62 1272.68 84.69 1272.61 250.01 1107.29 250.09 1107.21 415.4 941.9 415.48 941.82 580.79 776.5 580.87 776.43 746.18 611.11 746.26 611.04 911.57 445.73 911.64 445.65 1692.71 -335.42 1692.72 -335.42"/>
      <polyline class="cls-1" points="-80.46 1107.6 -80.38 1107.53 84.93 942.21 85.01 942.13 250.32 776.82 250.4 776.74 415.72 611.43 415.79 611.35 581.11 446.04 581.18 445.96 746.49 280.65 746.57 280.58 1527.64 -500.49"/>
      <polyline class="cls-1" points="1362.55 -665.58 581.48 115.49 581.41 115.56 416.09 280.88 416.02 280.95 250.7 446.27 250.63 446.34 85.32 611.66 85.23 611.74 -80.07 777.04 -80.16 777.13 -245.47 942.44 -245.54 942.52"/>
      <polyline class="cls-1" points="-410.63 777.43 -410.56 777.36 -245.24 612.04 -245.16 611.96 -79.85 446.65 -79.77 446.57 85.54 281.26 85.62 281.18 250.93 115.87 251.01 115.79 416.32 -49.52 416.39 -49.6 1197.46 -830.67 1197.47 -830.67"/>
      <polyline class="cls-1" points="1032.39 -995.74 251.32 -214.67 251.24 -214.6 85.93 -49.28 85.86 -49.21 -79.46 116.1 -79.53 116.18 -244.85 281.49 -244.93 281.57 -410.24 446.88 -410.32 446.96 -575.63 612.28 -575.71 612.35"/>
    </g>
  </g>
  <g>
    <g>
      <polyline class="cls-2" points="888.75 2076.66 1054.07 1911.35 1054.15 1911.27 1219.46 1745.96 1219.54 1745.88 1384.85 1580.56 1384.93 1580.49 1550.24 1415.18 1550.32 1415.1 1715.63 1249.79 1715.71 1249.71 2496.77 468.65 2496.85 468.56"/>
      <polyline class="cls-2" points="2331.76 303.48 2331.69 303.56 1550.62 1084.63 1550.55 1084.7 1385.23 1250.02 1385.16 1250.09 1219.84 1415.4 1219.76 1415.48 1054.45 1580.79 1054.37 1580.88 889.06 1746.18 888.98 1746.26 723.67 1911.57"/>
      <polyline class="cls-2" points="2166.68 138.39 2166.6 138.47 1385.53 919.54 1385.46 919.61 1220.14 1084.93 1220.07 1085 1054.76 1250.32 1054.68 1250.39 889.37 1415.71 889.28 1415.79 723.98 1581.1 723.9 1581.18 558.58 1746.49"/>
      <polyline class="cls-2" points="2001.6 -26.69 2001.52 -26.6 1220.46 754.46 1220.38 754.54 1055.07 919.85 1054.99 919.93 889.68 1085.24 889.6 1085.31 724.29 1250.63 724.21 1250.71 558.9 1416.02 558.82 1416.1 393.5 1581.41"/>
      <polyline class="cls-2" points="228.42 1416.32 393.73 1251.01 393.81 1250.93 559.12 1085.63 559.2 1085.54 724.51 920.23 724.59 920.16 889.91 754.84 889.98 754.77 1055.3 589.45 1055.37 589.38 1836.44 -191.69 1836.51 -191.77"/>
    </g>
    <g>
      <polyline class="cls-1" points="908.87 2096.93 908.95 2096.86 1074.26 1931.55 1074.35 1931.46 1239.65 1766.16 1239.73 1766.07 1405.05 1600.76 1405.12 1600.69 1570.44 1435.37 1570.51 1435.3 1735.83 1269.98 1735.9 1269.91 2516.97 488.84 2516.98 488.84"/>
      <polyline class="cls-1" points="743.8 1931.86 743.87 1931.78 909.19 1766.47 909.27 1766.39 1074.57 1601.08 1074.66 1601 1239.97 1435.68 1240.05 1435.61 1405.36 1270.29 1405.43 1270.22 1570.75 1104.9 1570.82 1104.83 2351.89 323.76"/>
      <polyline class="cls-1" points="2186.81 158.68 1405.74 939.75 1405.66 939.82 1240.35 1105.13 1240.27 1105.21 1074.96 1270.52 1074.89 1270.6 909.57 1435.91 909.49 1435.99 744.18 1601.3 744.1 1601.38 578.78 1766.7 578.71 1766.77"/>
      <polyline class="cls-1" points="413.62 1601.68 413.7 1601.61 579.01 1436.3 579.1 1436.21 744.4 1270.91 744.48 1270.82 909.8 1105.52 909.87 1105.44 1075.19 940.12 1075.26 940.05 1240.58 774.73 1240.65 774.66 2021.72 -6.41 2021.73 -6.41"/>
      <polyline class="cls-1" points="1856.64 -171.49 1075.57 609.58 1075.5 609.66 910.18 774.97 910.11 775.04 744.8 940.36 744.72 940.43 579.41 1105.75 579.33 1105.83 414.02 1271.14 413.94 1271.22 248.62 1436.53 248.55 1436.61"/>
    </g>
  </g>
</svg>