<svg xmlns="http://www.w3.org/2000/svg" xmlns:xlink="http://www.w3.org/1999/xlink" width="46.04" height="53.151" viewBox="0 0 46.04 53.151">
  <defs>
    <clipPath id="clip-path">
      <rect id="Rectangle_63" data-name="Rectangle 63" width="46.04" height="53.151" fill="none"/>
    </clipPath>
  </defs>
  <g id="Groupe_23" data-name="Groupe 23" transform="translate(0 0)">
    <g id="Groupe_22" data-name="Groupe 22" transform="translate(0 0)" clip-path="url(#clip-path)">
      <path id="Tracé_56" data-name="Tracé 56" d="M26.476,43.752a7.553,7.553,0,0,1,2.188,2.258c.9,1.369,1.805,2.786,2.549,3.943a8.068,8.068,0,0,0,3.472,3.056,14.914,14.914,0,0,0,1.633.612c5.72,1.76,11.324-3.37,10.453-9.291-.43-2.922-2.111-5.492-5.048-9.126-2.631-3.883.577-11.229-.48-16.762C38.342,6.072,23.489,1.24,13.36,8.2l0,0c-.053.038-.106.074-.161.109l0,0A18.73,18.73,0,0,0,5.056,24.929c.553,14.405,13.32,13.645,21.42,18.824" transform="translate(-0.823 -0.822)" fill="#ebaf2a"/>
      <path id="Tracé_57" data-name="Tracé 57" d="M21.476,38.752a7.553,7.553,0,0,1,2.188,2.258c.9,1.369,1.805,2.786,2.549,3.943a8.068,8.068,0,0,0,3.472,3.056,14.914,14.914,0,0,0,1.633.612c5.72,1.76,11.324-3.37,10.453-9.291-.43-2.922-2.111-5.492-5.048-9.126-2.631-3.883.577-11.229-.48-16.762C33.342,1.072,18.489-3.76,8.36,3.2l0,0c-.053.038-.106.074-.161.109l0,0A18.73,18.73,0,0,0,.056,19.929c.553,14.405,13.32,13.645,21.42,18.824" transform="translate(0 0)" fill="#fff"/>
    </g>
  </g>
</svg>